<svg id="Capa_1" enable-background="new 0 0 510 510" height="512" viewBox="0 0 510 510" width="512" xmlns="http://www.w3.org/2000/svg"><g id="XMLID_495_"><path id="XMLID_972_" d="m343.075 159.54c-2.88 4.31-15.3 21.75-18.6 26.13-22.54 29.98-50.45 61.85-81.53 92.93-31.09 31.08-62.96 58.98-92.94 81.53-4.38 3.29-21.81 15.7-26.12 18.59 25.89 18.8 57.71 29.9 92.07 29.9 86.57 0 157.01-70.44 157.01-157.02 0-34.36-11.1-66.18-29.89-92.06z"/><path id="XMLID_974_" d="m100.655 358.08c-1.91 1.25-3.81 2.45-5.69 3.62-43.14 26.85-61.04 26.35-63.65 24.71-2.23-3.48-1.01-27.54 36.76-82 7.19 20.09 18.37 38.3 32.58 53.67 4.13-2.65 20.8-14.17 24.99-17.24 30.65-22.43 63.81-51.18 96.09-83.45 32.27-32.28 61.02-65.44 83.46-96.09 3.07-4.19 14.58-20.86 17.23-24.99-15.37-14.21-33.59-25.39-53.68-32.59 54.39-37.74 78.49-39.01 82.01-36.75 1.64 2.61 2.14 20.51-24.71 63.65-1.17 1.88-2.37 3.78-3.62 5.69 7.62 7.03 14.54 14.82 20.65 23.23 3.71-5.54 7.18-10.97 10.42-16.28 12.58-20.65 21.01-38.65 25.04-53.52 5.3-19.54 3.09-34.34-6.56-43.99-12.69-12.69-34.33-12.42-64.32.81-22.09 9.74-48.97 26.48-78.11 48.61-4.48-.38-9.01-.58-13.59-.58-86.58 0-157.02 70.43-157.02 157.01 0 4.58.2 9.11.58 13.59-22.44 29.56-39.34 56.8-49.01 79.05-12.83 29.5-12.97 50.83-.41 63.39 6.24 6.24 14.63 9.37 25.07 9.37 5.7 0 12.02-.93 18.92-2.81 14.87-4.03 32.87-12.46 53.52-25.04 5.31-3.24 10.75-6.72 16.28-10.43-8.41-6.1-16.19-13.02-23.23-20.64z"/><circle id="XMLID_979_" cx="46.035" cy="46" r="46"/><circle id="XMLID_990_" cx="434.465" cy="434.5" r="75.5"/><path id="XMLID_991_" d="m441.035 211c7.846 0 15.363-6.899 15-15-.364-8.127-6.591-15-15-15-7.846 0-15.363 6.899-15 15 .364 8.127 6.59 15 15 15z"/><path id="XMLID_992_" d="m470.035 42c7.846 0 15.363-6.899 15-15-.364-8.127-6.591-15-15-15-7.846 0-15.363 6.899-15 15 .364 8.127 6.59 15 15 15z"/><path id="XMLID_993_" d="m109.035 439c-7.846 0-15.363 6.899-15 15 .364 8.127 6.591 15 15 15 7.846 0 15.363-6.899 15-15-.364-8.127-6.591-15-15-15z"/><path id="XMLID_994_" d="m273.598 468.013c-7.846 0-15.363 6.899-15 15 .364 8.127 6.591 15 15 15 7.846 0 15.363-6.899 15-15-.364-8.128-6.591-15-15-15z"/></g></svg>