<svg xmlns="http://www.w3.org/2000/svg" width="32.923" height="31.525" viewBox="0 0 32.923 31.525">
  <g id="boite_carton_1" data-name="boite carton 1" transform="translate(0 -5.224)">
    <g id="Groupe_350" data-name="Groupe 350" transform="translate(0 5.224)">
      <path id="Tracé_37" data-name="Tracé 37" d="M107.9,20.756a.785.785,0,0,0,.56-.237l2.722-2.794a.78.78,0,0,0-1.119-1.089l-2.724,2.794a.782.782,0,0,0,.561,1.325Z" transform="translate(-92.776 -14.903)" fill="#fcfbf6"/>
      <path id="Tracé_38" data-name="Tracé 38" d="M83.2,10.686h.012a.782.782,0,0,0,.769-.791L83.935,6a.8.8,0,0,0-.792-.771.78.78,0,0,0-.769.79l.049,3.9A.781.781,0,0,0,83.2,10.686Z" transform="translate(-71.347 -5.224)" fill="#fcfbf6"/>
      <path id="Tracé_39" data-name="Tracé 39" d="M41.837,25.868a.771.771,0,0,0,.544.223.78.78,0,0,0,.545-1.339L40.134,22.03a.779.779,0,1,0-1.088,1.116Z" transform="translate(-33.614 -19.586)" fill="#fcfbf6"/>
      <path id="Tracé_40" data-name="Tracé 40" d="M32.592,65.777c-.014-.007-.027,0-.039-.005a.762.762,0,0,0-.5-.366L12.061,61.5a.724.724,0,0,0-.418.035L.833,65.518c-.11.04-.159.141-.237.218-.108.028-.226.009-.312.08a.773.773,0,0,0-.284.6V80.8a.779.779,0,0,0,.632.766l20.312,3.9a.7.7,0,0,0,.146.016c.015,0,.026-.012.037-.012s.031.012.045.012a.844.844,0,0,0,.265-.045l10.969-3.9a.779.779,0,0,0,.517-.735V66.418A.8.8,0,0,0,32.592,65.777Zm-20.618-2.7,17.577,3.434-2.621.931c-.049-.021-.071-.075-.124-.084L9.517,63.981ZM21.08,69.52,3.589,66.163,6.7,65.019l17.455,3.409Zm-.773,14.232-18.751-3.6V67.36l18.751,3.6Zm11.055-3.5L21.954,83.6V70.867l9.408-3.346Z" transform="translate(0 -53.955)" fill="#fcfbf6"/>
    </g>
  </g>
</svg>
