<svg xmlns="http://www.w3.org/2000/svg" width="88.943" height="62.333" viewBox="0 0 88.943 62.333">
  <g id="delivery-truck" transform="translate(0 -67.004)">
    <g id="Groupe_394" data-name="Groupe 394" transform="translate(0 67.004)">
      <path id="Tracé_75" data-name="Tracé 75" d="M85.924,94.785l-6.057-2.621L74.725,82.155a8.1,8.1,0,0,0-7.288-4.428H58.58v-2.5A8.17,8.17,0,0,0,50.439,67H8.1A8.149,8.149,0,0,0,0,75.225V113.55a4.992,4.992,0,0,0,4.925,5.064H6.057c0,.2-.02.278-.02.4a10.286,10.286,0,1,0,20.572.079v-.1a3.089,3.089,0,0,0-.02-.4H60.8v.4a10.286,10.286,0,1,0,20.572.079v-.5h2.562a5.009,5.009,0,0,0,5-5V99.392A4.98,4.98,0,0,0,85.924,94.785Zm-69.581,30.6a6.315,6.315,0,1,1,6.315-6.315A6.305,6.305,0,0,1,16.344,125.385Zm38.265-10.7H25.657a10.273,10.273,0,0,0-18.626,0H5a1.028,1.028,0,0,1-1.033-1.092V103.363H54.609Zm0-39.437V99.392H3.972V75.245A4.179,4.179,0,0,1,8.1,71H50.439a4.208,4.208,0,0,1,4.17,4.23Zm3.971,6.474h8.856a4.191,4.191,0,0,1,3.773,2.244l3.971,7.685H58.58Zm12.53,43.667a6.315,6.315,0,1,1,6.315-6.315A6.305,6.305,0,0,1,71.11,125.385Zm13.88-11.8a1.028,1.028,0,0,1-1.033,1.092H80.424a10.278,10.278,0,0,0-18.626,0H58.58V95.619h19.46l6.315,2.78a1.168,1.168,0,0,1,.635,1.072Z" transform="translate(0 -67.004)" fill="#404040"/>
    </g>
  </g>
</svg>
