<svg id="local_shipping_black_24dp" xmlns="http://www.w3.org/2000/svg" width="28" height="28" viewBox="0 0 28 28">
  <path id="Tracé_48" data-name="Tracé 48" d="M0,0H28V28H0Z" fill="none"/>
  <path id="Tracé_49" data-name="Tracé 49" d="M23.167,8.667h-3.5V4H3.333A2.34,2.34,0,0,0,1,6.333V19.167H3.333a3.5,3.5,0,1,0,7,0h7a3.5,3.5,0,0,0,7,0h2.333V13.333Zm-.583,1.75,2.287,2.917h-5.2V10.417ZM6.833,20.333A1.167,1.167,0,1,1,8,19.167,1.17,1.17,0,0,1,6.833,20.333Zm2.59-3.5a3.458,3.458,0,0,0-5.18,0h-.91V6.333h14v10.5Zm11.41,3.5A1.167,1.167,0,1,1,22,19.167,1.17,1.17,0,0,1,20.833,20.333Z" transform="translate(0.167 0.667)" fill="#fcfbf6"/>
</svg>
