<svg xmlns="http://www.w3.org/2000/svg" width="20.192" height="22.94" viewBox="0 0 20.192 22.94">
  <g id="refund" transform="translate(-11.608)">
    <g id="Groupe_379" data-name="Groupe 379" transform="translate(11.608)">
      <g id="Groupe_378" data-name="Groupe 378" transform="translate(0)">
        <path id="Tracé_55" data-name="Tracé 55" d="M27.9,4.866,26.791,6.288A8.3,8.3,0,1,1,22.159,4.56L20.6,6.194l1.155,1.1,2.458-2.581h0l1.1-1.157-1.155-1.1h0L21.582,0l-1.1,1.157,1.681,1.6a10.1,10.1,0,0,0-2.026,20.058,10.2,10.2,0,0,0,1.59.125A10.1,10.1,0,0,0,27.9,4.866Z" transform="translate(-11.608)" fill="#fcfbf6"/>
        <path id="Tracé_56" data-name="Tracé 56" d="M72.933,79.628h0V78.591A2.467,2.467,0,0,0,75.359,76.2c0-2-1.863-2.233-3.223-2.4-.87-.1-1.536-.225-1.536-.752,0-.733,1.033-.812,1.477-.812a2,2,0,0,1,1.6.705l.069.115,1.366-.632-.068-.138a2.7,2.7,0,0,0-2.113-1.464v-.913h-1.6v.909c-1.49.22-2.374,1.046-2.374,2.229,0,1.929,1.751,2.124,3.029,2.268,1.139.134,1.669.416,1.669.884,0,.9-1.24.965-1.62.965a2.085,2.085,0,0,1-1.9-.983l-.059-.138-1.484.629.059.138a3.131,3.131,0,0,0,2.679,1.826v.987Z" transform="translate(-61.848 -61.636)" fill="#fcfbf6"/>
      </g>
    </g>
  </g>
</svg>
