<svg xmlns="http://www.w3.org/2000/svg" width="15.429" height="18.851" viewBox="0 0 15.429 18.851">
  <g id="secure-payment" transform="translate(-32.499 0.001)">
    <path id="Tracé_57" data-name="Tracé 57" d="M133.5,131.493a.662.662,0,0,0-.465-.191.653.653,0,0,0-.465.191l-2.3,2.3-.8-.8a.658.658,0,0,0-.93.931l1.261,1.261a.653.653,0,0,0,.465.191h0a.654.654,0,0,0,.465-.191l2.769-2.769A.659.659,0,0,0,133.5,131.493Z" transform="translate(-90.806 -124.39)" fill="#fcfbf6"/>
    <path id="Tracé_58" data-name="Tracé 58" d="M47.9,3.884a.342.342,0,0,0-.191-.278L40.363.034a.342.342,0,0,0-.3,0L32.721,3.606a.342.342,0,0,0-.191.278,18.906,18.906,0,0,0,.591,5.81,15.571,15.571,0,0,0,2.187,4.924,12.881,12.881,0,0,0,4.748,4.194.342.342,0,0,0,.315,0,12.882,12.882,0,0,0,4.748-4.194A15.57,15.57,0,0,0,47.3,9.694,18.907,18.907,0,0,0,47.9,3.884Zm-7.683,9.367A4.353,4.353,0,1,1,44.566,8.9,4.358,4.358,0,0,1,40.213,13.251Z" fill="#fcfbf6"/>
  </g>
</svg>
