<svg xmlns="http://www.w3.org/2000/svg" width="28.119" height="28.119" viewBox="0 0 28.119 28.119">
  <path id="Tracé_4" data-name="Tracé 4" d="M9.436,24.5a2.812,2.812,0,1,0,2.812,2.812A2.808,2.808,0,0,0,9.436,24.5ZM1,2V4.812H3.812L8.873,15.483l-1.9,3.445a2.718,2.718,0,0,0-.351,1.35,2.82,2.82,0,0,0,2.812,2.812H26.307V20.277H10.026a.348.348,0,0,1-.351-.351l.042-.169,1.265-2.292H21.457a2.8,2.8,0,0,0,2.46-1.448L28.95,6.893a1.374,1.374,0,0,0,.169-.675,1.41,1.41,0,0,0-1.406-1.406H6.919L5.6,2H1ZM23.5,24.5a2.812,2.812,0,1,0,2.812,2.812A2.808,2.808,0,0,0,23.5,24.5Z" transform="translate(-1 -2)" fill="#fcfbf6"/>
</svg>
