<svg xmlns="http://www.w3.org/2000/svg" width="38.255" height="31.07" viewBox="0 0 38.255 31.07">
  <path id="twitter" d="M34.323,55.825c.024.34.024.68.024,1.02,0,10.365-7.889,22.307-22.307,22.307A22.156,22.156,0,0,1,0,75.632a16.221,16.221,0,0,0,1.893.1,15.7,15.7,0,0,0,9.734-3.35A7.854,7.854,0,0,1,4.3,66.942a9.886,9.886,0,0,0,1.481.121A8.292,8.292,0,0,0,7.84,66.8,7.841,7.841,0,0,1,1.553,59.1v-.1A7.9,7.9,0,0,0,5.1,60,7.852,7.852,0,0,1,2.67,49.514a22.286,22.286,0,0,0,16.166,8.2,8.851,8.851,0,0,1-.194-1.8,7.848,7.848,0,0,1,13.569-5.364,15.436,15.436,0,0,0,4.976-1.893,7.819,7.819,0,0,1-3.447,4.321,15.717,15.717,0,0,0,4.515-1.214,16.854,16.854,0,0,1-3.932,4.054Z" transform="translate(0 -48.082)" fill="#00003f"/>
</svg>
