<svg xmlns="http://www.w3.org/2000/svg" width="86.001" height="62.675" viewBox="0 0 86.001 62.675">
  <g id="boite_carton_1" data-name="boite carton 1" transform="translate(-166 80.514)">
    <g id="Groupe_383" data-name="Groupe 383" transform="translate(166 -80.514)">
      <path id="Tracé_62" data-name="Tracé 62" d="M85.135,72.695c-.035-.019-.07,0-.1-.013a1.989,1.989,0,0,0-1.319-.956l-52.208-10.2a1.89,1.89,0,0,0-1.093.09L2.176,72.017c-.288.1-.416.369-.618.568-.283.073-.589.024-.815.21A2.019,2.019,0,0,0,0,74.366v37.567a2.034,2.034,0,0,0,1.652,2L54.71,124.119a1.82,1.82,0,0,0,.381.042c.039,0,.069-.033.1-.033.045,0,.08.033.118.033a2.2,2.2,0,0,0,.691-.118L84.65,113.858A2.035,2.035,0,0,0,86,111.939V74.369A2.1,2.1,0,0,0,85.135,72.695ZM31.278,65.641l45.915,8.97-6.846,2.431c-.129-.055-.185-.195-.325-.22L24.861,68ZM55.065,82.472,9.374,73.7l8.121-2.99,45.594,8.9Zm-2.019,37.176-48.981-9.4V76.828l48.981,9.4ZM81.923,110.5l-24.576,8.741V85.991l24.576-8.74Z" transform="translate(0 -61.486)" fill="#404040"/>
    </g>
  </g>
</svg>
