<svg id="local_shipping_black_24dp" xmlns="http://www.w3.org/2000/svg" width="53.653" height="53.653" viewBox="0 0 53.653 53.653">
  <path id="Tracé_48" data-name="Tracé 48" d="M0,0H53.653V53.653H0Z" fill="none"/>
  <path id="Tracé_49" data-name="Tracé 49" d="M43.475,12.942H36.769V4H5.471A4.484,4.484,0,0,0,1,8.471V33.062H5.471a6.707,6.707,0,1,0,13.413,0H32.3a6.707,6.707,0,1,0,13.413,0h4.471V21.884ZM42.357,16.3l4.382,5.589h-9.97V16.3Zm-30.18,19a2.236,2.236,0,1,1,2.236-2.236A2.242,2.242,0,0,1,12.178,35.3Zm4.963-6.707a6.627,6.627,0,0,0-9.926,0H5.471V8.471H32.3v20.12ZM39,35.3a2.236,2.236,0,1,1,2.236-2.236A2.242,2.242,0,0,1,39,35.3Z" transform="translate(1.236 4.942)" fill="#00003f"/>
</svg>
