<svg id="Calque_1_-_copie" data-name="Calque 1 - copie" xmlns="http://www.w3.org/2000/svg" xmlns:xlink="http://www.w3.org/1999/xlink" viewBox="0 0 993.07 185.05"><defs><style>.cls-1,.cls-2{fill:#f29544;}.cls-1{opacity:0.6;}.cls-3{fill:#5e96c2;}.cls-4{fill:url(#Dégradé_sans_nom_11);}</style><linearGradient id="Dégradé_sans_nom_11" x1="421.78" y1="138.81" x2="554.57" y2="138.81" gradientUnits="userSpaceOnUse"><stop offset="0.39" stop-color="#5e96c2"/><stop offset="0.54" stop-color="#ec9549"/><stop offset="1" stop-color="#f29544"/></linearGradient></defs><rect class="cls-1" x="258.09" y="25.61" width="32.26" height="63.43" rx="12.05" transform="translate(120.85 -177.11) rotate(45)"/><rect class="cls-1" x="280.13" y="25.61" width="32.26" height="63.43" rx="12.05" transform="translate(46.24 226.27) rotate(-45)"/><circle class="cls-2" cx="252.69" cy="31.06" r="11.83"/><circle class="cls-2" cx="271.77" cy="11.83" r="11.83"/><circle class="cls-2" cx="298.72" cy="11.83" r="11.83"/><circle class="cls-2" cx="317.7" cy="31.06" r="11.83"/><path class="cls-3" d="M45.74,183.22H20c-13.49,0-20-6.47-20-20V102.8c0-6.34,3.91-10.65,10.66-10.65s10.52,4.31,10.52,10.65v61c0,2.84,1.62,4.46,4.46,4.46h20.1c4.45,0,7.42,2.83,7.42,7.55S50.19,183.22,45.74,183.22Z"/><path class="cls-3" d="M135.06,183.22a12.66,12.66,0,0,1-4.18.81c-4.59,0-8.1-3-10-7.42l-2.69-6.48a4.51,4.51,0,0,0-4.59-3.1H83.25a4.51,4.51,0,0,0-4.59,3.1L75.56,178c-1.49,3.78-4.45,5.94-8.1,5.94a7,7,0,0,1-3.24-.68A7.64,7.64,0,0,1,59,175.67a12.13,12.13,0,0,1,.81-4.19l29.28-71.37c2.16-5.27,6.34-8.5,11.74-8.5s9.58,3.37,11.6,8.36l28.07,68.55a14.72,14.72,0,0,1,1.08,5.26A9.77,9.77,0,0,1,135.06,183.22Zm-25.63-34.67-9.18-23.89a2,2,0,0,0-1.75-1.21,1.69,1.69,0,0,0-1.62,1.21l-9.31,23.89a3.53,3.53,0,0,0-.41,1.48c0,1.21.81,1.89,2.43,1.89H107.4c1.49,0,2.3-.68,2.3-1.89A7.31,7.31,0,0,0,109.43,148.55Z"/><path class="cls-3" d="M259.33,170.67c0,7.83-3.64,13.36-10.66,13.36-5.53,0-8.77-1.48-12.82-7.15l-33.06-46.82a1.28,1.28,0,0,0-1.21-.67c-.54,0-1.08.54-1.08,1.48V175.4c0,5.12-3.24,8.5-8.5,8.5s-8.5-3.38-8.5-8.5v-70C183.5,97.54,187,92,194.16,92c5.53,0,8.9,1.75,13,7.42l33.06,47.09a1.36,1.36,0,0,0,1.08.68c.67,0,1.08-.41,1.08-1.35v-45.2c0-5.13,3.24-8.5,8.5-8.5s8.5,3.37,8.5,8.5Z"/><path class="cls-3" d="M295.89,173.24c0,6.34-3.91,10.66-10.66,10.66s-10.52-4.32-10.52-10.66V102.8c0-6.47,3.91-10.65,10.52-10.65s10.66,4.18,10.66,10.65Z"/><path class="cls-3" d="M406.67,173.91v.27c0,5.94-3.78,9.72-10,9.72-6.35,0-10-4.05-10.12-10.12l-1.35-41.29c0-1-.54-1.35-1.08-1.35a1.55,1.55,0,0,0-1.22,1.08L366.6,177.29c-1.62,4.45-4.73,6.74-9.18,6.74s-7.69-2.29-9.31-6.74l-16.19-45.07a1.55,1.55,0,0,0-1.21-1.08c-.54,0-1.08.4-1.08,1.35l-1.35,42.91c-.14,5.12-3.24,8.63-8.5,8.63s-8.5-3.37-8.5-8.23v-.4l1.88-69.49c.14-6.88,5.67-13.76,13.5-13.76,7.42,0,12.14,3.5,14.43,10l17.28,48.57c.27.68.67,1.08,1.21,1.08a1.54,1.54,0,0,0,1.35-1.08l17-48.57c2.29-6.48,6.48-10,13.9-10,8,0,12.95,6.88,13.09,13.76l1.75,67.87Z"/><path class="cls-3" d="M985.51,182.88H958.26c-13.49,0-20-6.61-20-20V112.32c0-13.36,6.48-19.84,20-19.84h27.25c4.46,0,7.56,2.83,7.56,7.42s-3.1,7.56-7.56,7.56H964.06c-2.83,0-4.59,1.62-4.59,4.45v13.9a2.94,2.94,0,0,0,3.24,3.1h22.67c4.59,0,7.56,2.84,7.56,7.42s-3,7.56-7.56,7.56H962.71c-2,0-3.24,1.08-3.24,3.1v16.46c0,2.84,1.76,4.46,4.59,4.46h21.45c4.46,0,7.56,2.83,7.56,7.55S990,182.88,985.51,182.88Z"/><path class="cls-3" d="M577.56,125.47a7.29,7.29,0,0,1-4.46,1.76,3.47,3.47,0,0,1-3.77-3.78,7.51,7.51,0,0,1,2.56-5c2.16-2.3,3.24-4.46,3.24-6.75a13,13,0,0,0-1.49-5.53,11.86,11.86,0,0,1-1.35-5.4c0-5.26,3.65-9.17,8.64-9.17,5.26,0,8.5,3.91,8.5,10C589.43,109.15,584.44,119.4,577.56,125.47Z"/><path class="cls-3" d="M674,183.22a12.66,12.66,0,0,1-4.18.81c-4.59,0-8.1-3-10-7.42l-2.69-6.48a4.51,4.51,0,0,0-4.59-3.1H622.22a4.51,4.51,0,0,0-4.59,3.1l-3.1,7.83c-1.49,3.78-4.46,5.94-8.1,5.94a7,7,0,0,1-3.24-.68,7.64,7.64,0,0,1-5.26-7.55,12.13,12.13,0,0,1,.81-4.19L628,100.11c2.16-5.27,6.34-8.5,11.74-8.5s9.58,3.37,11.6,8.36l28.07,68.55a14.72,14.72,0,0,1,1.08,5.26A9.77,9.77,0,0,1,674,183.22ZM648.4,148.55l-9.18-23.89a2,2,0,0,0-1.75-1.21,1.69,1.69,0,0,0-1.62,1.21l-9.31,23.89a3.53,3.53,0,0,0-.41,1.48c0,1.21.81,1.89,2.43,1.89h17.81c1.49,0,2.29-.68,2.29-1.89A7.22,7.22,0,0,0,648.4,148.55Z"/><path class="cls-3" d="M736.1,183.22H710.33c-13.5,0-20-6.47-20-20V102.8c0-6.34,3.91-10.65,10.66-10.65s10.52,4.31,10.52,10.65v61c0,2.84,1.62,4.46,4.45,4.46H736.1c4.45,0,7.42,2.83,7.42,7.55S740.55,183.22,736.1,183.22Z"/><path class="cls-3" d="M800.46,183.22H773.2c-13.49,0-20-6.61-20-20v-50.6c0-13.35,6.48-19.83,20-19.83h27.26c4.45,0,7.55,2.83,7.55,7.42s-3.1,7.56-7.55,7.56H779c-2.83,0-4.58,1.62-4.58,4.45v13.9a2.94,2.94,0,0,0,3.23,3.1h22.67c4.59,0,7.56,2.83,7.56,7.42s-3,7.56-7.56,7.56H777.65c-2,0-3.23,1.08-3.23,3.1v16.46c0,2.84,1.75,4.46,4.58,4.46h21.46c4.45,0,7.55,2.83,7.55,7.55S804.91,183.22,800.46,183.22Z"/><path class="cls-3" d="M884.38,182.14a10.28,10.28,0,0,1-5.67,1.76,11.23,11.23,0,0,1-9.31-5.4l-22-33.06a10.47,10.47,0,0,1-1.48-5.39c0-4.05,2.29-8.1,7.42-8.77,6.47-.81,11.33-4.73,11.33-11.88,0-8.5-6.75-11.74-16.06-11.74h-4.31c-2,0-3.24,1.08-3.24,3.11v62.6c0,6.34-3.91,10.66-10.53,10.66s-10.66-4.32-10.66-10.66V105.64c0-8.1,4.86-12.82,13-12.82h18.48c24.43,0,34.82,11.2,34.82,26.58,0,10.93-5.4,19-17.68,22.8L886.27,167a12.43,12.43,0,0,1,2.43,7.29A9.09,9.09,0,0,1,884.38,182.14Z"/><path class="cls-3" d="M922.56,173.24c0,6.34-3.91,10.66-10.66,10.66s-10.52-4.32-10.52-10.66V102.8c0-6.47,3.91-10.65,10.52-10.65s10.66,4.18,10.66,10.65Z"/><path class="cls-4" d="M537.06,109.47c-42.64,3.15-9.9,47.38-32.43,64.42-19.84,13.59-38.36,10.22-56.72,11.15a8.45,8.45,0,0,1-1.33,0c-20.15-2.12-22.86-5.71-24.21-19.6-.4-4.12-.58-8.26-.58-12.4,0-14.11,0-27.42.17-39.41.27-15.54,6.14-18.24,20.11-20.5,7.05-1.14,18.68,0,26.22-.07,4.93,0,7.63,2.63,7.54,7.29s-2.42,7.07-7.57,7.41c-6.2.42-14.46-.28-20.83.21-3.37.25-4.42,1.16-4.69,4.54a113.58,113.58,0,0,0,0,13.56c.12,2.32.95,3,3.36,3.16,6.76.37,15.49-.25,22,.17,5.26.35,7.55,2.5,7.57,7.33s-2.3,7.09-7.56,7.45c-6.49.44-15.16-.18-21.9.22-2.4.14-3.44.7-3.28,3.2,0,5.18.07,11.6.1,16.67,0,3.42-.86,6.08,4.37,5.93,16.46-.48,25.62,2.47,41.65-6.25,21.12-11.28-17.12-64.53,46.16-70.31,15.76-1.44,17-.86,19,5.78S549.72,111,537.06,109.47Z"/></svg>