<?xml version="1.0" ?><svg viewBox="0 0 512 512" xmlns="http://www.w3.org/2000/svg"><g id="Flash_sale"><path d="M453.35,121.62a84.014,84.014,0,0,0-39.11-70.98L409.75,62a72.0187,72.0187,0,1,1-76.23-2.88l5.64-15.91a84.3741,84.3741,0,0,0-50.671,55.5061,62.5926,62.5926,0,0,0-106.2558,44.8928v18.7334h-59.228a30.3971,30.3971,0,0,0-30.3194,27.3721L65.6768,453.3467a30.4779,30.4779,0,0,0,30.32,33.584h297.748a30.4777,30.4777,0,0,0,30.3193-33.584L398.1654,200.5505A84.1766,84.1766,0,0,0,453.35,121.62ZM194.2335,143.6089a50.6112,50.6112,0,0,1,91.4619-29.9043c-.2449,2.6074-.3851,5.2449-.3851,7.9154a83.5172,83.5172,0,0,0,10.1976,40.092v.63H194.2335Zm107.2744,68.4516a9.5005,9.5005,0,1,1-9.501,9.5005A9.5111,9.5111,0,0,1,301.5079,212.0605Zm-113.2744,0a9.5005,9.5005,0,1,1-9.501,9.5005A9.5111,9.5111,0,0,1,188.2335,212.0605Zm223.893,242.5088a18.4776,18.4776,0,0,1-18.3818,20.3614h-6.7294l-37.3487-34.9834a45.8553,45.8553,0,0,0-31.4551-12.4307H167.4527a45.8536,45.8536,0,0,0-31.4546,12.4307L98.6494,474.9307H95.9967a18.4778,18.4778,0,0,1-18.3824-20.3614L104.6236,190.937a18.4289,18.4289,0,0,1,18.3819-16.5947h59.228v26.5869a21.5005,21.5005,0,1,0,12,0V174.3423H295.5079v26.5869a21.5005,21.5005,0,1,0,12,0V178.4507a83.9275,83.9275,0,0,0,78.9371,25.4419Z"/><path d="M307.6792,311.5914c-1.7564-1.4124-4.6958-3.7766-5.0469-4.858-.4038-1.2441.57-4.8838,1.2156-7.293,1.4592-5.45,3.113-11.6288-.5044-16.5988-3.6453-5.009-10.0674-5.3392-15.7336-5.63-2.4663-.1269-6.1934-.3181-7.208-1.0565-.9756-.71-2.3416-4.2971-3.1578-6.4406-2.0332-5.34-4.3371-11.3916-10.2929-13.3249-5.7718-1.875-11.0877,1.5776-15.7769,4.623-2.1252,1.38-5.3371,3.4668-6.7212,3.4668s-4.5959-2.0864-6.7214-3.4668c-4.6887-3.0459-10.0039-6.4984-15.7759-4.6234-5.9563,1.9337-8.261,7.9864-10.2939,13.3253-.8162,2.1435-2.1817,5.7308-3.157,6.4406-1.0142.7384-4.7412.9287-7.2075,1.0555-5.6663.2907-12.0889.62-15.7344,5.63-3.6177,4.97-1.9639,11.1487-.5049,16.6.645,2.4082,1.6194,6.0489,1.2156,7.293-.3513,1.0814-3.29,3.4456-5.0464,4.8589-4.2632,3.4291-9.5681,7.6968-9.5681,14.0444s5.3054,10.6162,9.5688,14.0463c1.7561,1.4125,4.6944,3.7766,5.0457,4.857.4038,1.2442-.5706,4.8848-1.2156,7.293-1.4595,5.4512-3.1133,11.63.5044,16.6,3.6455,5.01,10.0684,5.339,15.7349,5.63,2.4658.1268,6.1928.3171,7.2065,1.0547.9758.7108,2.3413,4.298,3.1575,6.4414,2.0332,5.34,4.3376,11.3916,10.2934,13.3263a10.7852,10.7852,0,0,0,3.3538.5315c4.4868-.0009,8.6575-2.7091,12.4236-5.1559,2.125-1.38,5.3371-3.4668,6.7209-3.4668s4.5957,2.0864,6.7207,3.4668c4.6892,3.0464,10.0034,6.4966,15.7774,4.6244,5.9555-1.9347,8.2592-7.9865,10.2924-13.3253.8162-2.1436,2.1822-5.7307,3.1587-6.4414,1.014-.7376,4.7408-.9289,7.2066-1.0548,5.6665-.2907,12.0886-.6208,15.7346-5.63,3.6169-4.9712,1.9631-11.15.5044-16.6-.6453-2.4083-1.6194-6.0488-1.2156-7.293.3511-1.0814,3.2905-3.4455,5.0464-4.858,4.2632-3.43,9.5684-7.6976,9.5684-14.0463S311.9419,315.0214,307.6792,311.5914Zm-96.135-5.7613a10.3766,10.3766,0,1,1,10.3767,10.3764A10.3766,10.3766,0,0,1,211.5442,305.83ZM223.1323,354.59l-8.7995-9.0537,53.5507-52.047,8.8,9.0537Zm43.2532,4.3185a10.3766,10.3766,0,1,1,10.3765-10.3765A10.3766,10.3766,0,0,1,266.3855,358.908Z"/><path d="M351.8535,164.4067a8.5913,8.5913,0,0,1-6.8027-3.3867,8.2336,8.2336,0,0,1-1.3252-7.2617l11.67-41.7442a3.2272,3.2272,0,0,0-3.1081-4.0961h-8.0305a8.7565,8.7565,0,0,1-5.7866-2.0649,8.3731,8.3731,0,0,1-2.3809-9.0992l24.1993-68.2285a8.3663,8.3663,0,0,1,7.8852-5.57h28.2922A8.7119,8.7119,0,0,1,402.49,25.23a8.3713,8.3713,0,0,1,2.0422,9.1677L385.126,83.5017a3.2272,3.2272,0,0,0,3.0014,4.4133h8.1776a12.1076,12.1076,0,0,1,11.1255,7.0036,11.6528,11.6528,0,0,1-1.9139,12.555l-47.4453,54.0572A8.1961,8.1961,0,0,1,351.8535,164.4067Z"/></g></svg>