<?xml version="1.0" encoding="utf-8"?>
<!-- Generator: Adobe Illustrator 26.0.1, SVG Export Plug-In . SVG Version: 6.00 Build 0)  -->
<svg version="1.1" id="Layer_1" xmlns:sketch="http://www.bohemiancoding.com/sketch/ns"
	 xmlns="http://www.w3.org/2000/svg" xmlns:xlink="http://www.w3.org/1999/xlink" x="0px" y="0px" viewBox="0 0 670.1 178.6"
	 style="enable-background:new 0 0 670.1 178.6;" xml:space="preserve">
<style type="text/css">
	.st0{fill:#003087;}
	.st1{fill:#009CDE;}
</style>
<desc>Created with Sketch.</desc>
<g>
	<path class="st0" d="M113.4,8.7C105,2.9,94.1,0,80.5,0H28.2c-4.1,0-6.4,2.1-6.9,6.2L0.1,139.7c-0.2,1.3,0.1,2.5,1,3.6
		c0.9,1.1,2,1.6,3.3,1.6h24.9c4.4,0,6.8-2.1,7.2-6.2l5.9-36c0.2-1.7,1-3.2,2.3-4.3c1.3-1.1,2.9-1.8,4.9-2.1c2-0.3,3.8-0.5,5.6-0.5
		c1.7,0,3.8,0.1,6.2,0.3c2.4,0.2,3.9,0.3,4.6,0.3c18.8,0,33.5-5.3,44.2-15.9c10.7-10.6,16-25.2,16-44C126,23.8,121.8,14.5,113.4,8.7
		z M86.4,48.7c-1.1,7.6-3.9,12.6-8.5,15c-4.6,2.4-11.1,3.6-19.6,3.6l-10.8,0.3l5.6-35c0.4-2.4,1.9-3.6,4.3-3.6h6.2
		c8.7,0,15,1.3,19,3.8C86.4,35.4,87.7,40.7,86.4,48.7z"/>
	<path class="st1" d="M665.8,0h-24.2c-2.4,0-3.8,1.2-4.3,3.6l-21.3,136.1l-0.3,0.7c0,1.1,0.4,2.1,1.3,3.1c0.9,1,2,1.5,3.3,1.5H642
		c4.1,0,6.4-2.1,6.9-6.2L670.1,4.9V4.6C670.1,1.5,668.7,0,665.8,0z"/>
	<path class="st0" d="M373.4,52.7c0-1.1-0.4-2.1-1.3-3.1c-0.9-1-1.9-1.5-2.9-1.5h-25.2c-2.4,0-4.4,1.1-5.9,3.3l-34.7,51L289,53.3
		c-1.1-3.5-3.5-5.2-7.2-5.2h-24.5c-1.1,0-2.1,0.5-2.9,1.5c-0.9,1-1.3,2-1.3,3.1c0,0.4,2.1,6.9,6.4,19.3c4.3,12.4,8.8,25.8,13.7,40.2
		c4.9,14.4,7.5,22,7.7,22.9c-17.9,24.4-26.8,37.5-26.8,39.3c0,2.8,1.4,4.3,4.3,4.3h25.2c2.4,0,4.4-1.1,5.9-3.3L372.7,55
		C373.1,54.5,373.4,53.8,373.4,52.7z"/>
	<path class="st1" d="M607.9,48.1h-24.9c-3.1,0-4.9,3.6-5.6,10.8c-5.7-8.7-16-13.1-31.1-13.1c-15.7,0-29.1,5.9-40.1,17.7
		c-11,11.8-16.5,25.6-16.5,41.6c0,12.9,3.8,23.1,11.3,30.8c7.5,7.6,17.6,11.5,30.3,11.5c6.3,0,12.8-1.3,19.3-3.9
		c6.5-2.6,11.7-6.1,15.4-10.5c0,0.2-0.2,1.2-0.7,2.9c-0.4,1.7-0.7,3.1-0.7,3.9c0,3.5,1.4,5.2,4.3,5.2h22.6c4.1,0,6.5-2.1,7.2-6.2
		l13.4-85.4c0.2-1.3-0.1-2.5-1-3.6C610.3,48.6,609.2,48.1,607.9,48.1z M565.2,112.5c-5.6,5.5-12.3,8.2-20.1,8.2
		c-6.3,0-11.4-1.7-15.4-5.2c-3.9-3.5-5.9-8.3-5.9-14.4c0-8.1,2.7-14.9,8.2-20.4c5.4-5.6,12.2-8.3,20.3-8.3c6.1,0,11.2,1.8,15.2,5.4
		c4,3.6,6.1,8.6,6.1,14.9C573.6,100.4,570.8,107.1,565.2,112.5z"/>
	<path class="st0" d="M236.3,48.1h-24.9c-3.1,0-4.9,3.6-5.6,10.8c-5.9-8.7-16.2-13.1-31.1-13.1c-15.7,0-29.1,5.9-40.1,17.7
		c-11,11.8-16.5,25.6-16.5,41.6c0,12.9,3.8,23.1,11.3,30.8c7.5,7.6,17.6,11.5,30.3,11.5c6.1,0,12.4-1.3,19-3.9
		c6.5-2.6,11.8-6.1,15.7-10.5c-0.9,2.6-1.3,4.9-1.3,6.9c0,3.5,1.4,5.2,4.3,5.2h22.6c4.1,0,6.5-2.1,7.2-6.2l13.4-85.4
		c0.2-1.3-0.1-2.5-1-3.6C238.7,48.6,237.6,48.1,236.3,48.1z M193.6,112.7c-5.6,5.4-12.4,8-20.4,8c-6.3,0-11.4-1.7-15.2-5.2
		c-3.8-3.5-5.7-8.3-5.7-14.4c0-8.1,2.7-14.9,8.2-20.4c5.4-5.6,12.2-8.3,20.3-8.3c6.1,0,11.2,1.8,15.2,5.4c4,3.6,6.1,8.6,6.1,14.9
		C201.9,100.7,199.1,107.4,193.6,112.7z"/>
	<path class="st1" d="M485.1,8.7C476.7,2.9,465.7,0,452.2,0h-52c-4.4,0-6.8,2.1-7.2,6.2l-21.3,133.5c-0.2,1.3,0.1,2.5,1,3.6
		c0.9,1.1,2,1.6,3.3,1.6h26.8c2.6,0,4.4-1.4,5.2-4.3l5.9-37.9c0.2-1.7,1-3.2,2.3-4.3c1.3-1.1,2.9-1.8,4.9-2.1c2-0.3,3.8-0.5,5.6-0.5
		c1.7,0,3.8,0.1,6.2,0.3c2.4,0.2,3.9,0.3,4.6,0.3c18.8,0,33.5-5.3,44.2-15.9c10.7-10.6,16-25.2,16-44
		C497.7,23.8,493.5,14.5,485.1,8.7z M451.6,62.5c-4.8,3.3-12,4.9-21.6,4.9l-10.5,0.3l5.6-35c0.4-2.4,1.8-3.6,4.3-3.6h5.9
		c4.8,0,8.6,0.2,11.5,0.7c2.8,0.4,5.6,1.8,8.2,4.1c2.6,2.3,3.9,5.6,3.9,10C458.7,53,456.3,59.2,451.6,62.5z"/>
</g>
</svg>
