<svg xmlns="http://www.w3.org/2000/svg" width="38.691" height="43.958" viewBox="0 0 38.691 43.958">
  <g id="refund" transform="translate(0)">
    <g id="Groupe_379" data-name="Groupe 379" transform="translate(0)">
      <g id="Groupe_378" data-name="Groupe 378" transform="translate(0)">
        <path id="Tracé_55" data-name="Tracé 55" d="M42.822,9.325,40.7,12.049a15.9,15.9,0,1,1-8.875-3.311l-2.984,3.131,2.214,2.113,4.711-4.946v0l2.11-2.216-2.212-2.11h0L30.721,0,28.609,2.216l3.221,3.068a19.345,19.345,0,0,0-3.883,38.434A19.551,19.551,0,0,0,31,43.958,19.353,19.353,0,0,0,42.822,9.325Z" transform="translate(-11.608)" fill="#00003f"/>
        <path id="Tracé_56" data-name="Tracé 56" d="M76.908,88.528h0V86.541c2.355-.263,4.647-1.751,4.647-4.576,0-3.838-3.569-4.278-6.176-4.6-1.667-.2-2.942-.43-2.942-1.44,0-1.4,1.979-1.555,2.83-1.555a3.841,3.841,0,0,1,3.068,1.351l.133.22,2.618-1.212-.13-.264a5.168,5.168,0,0,0-4.049-2.8V69.913H73.842v1.742c-2.854.421-4.549,2.005-4.549,4.272,0,3.7,3.355,4.071,5.8,4.345,2.182.257,3.2.8,3.2,1.694,0,1.716-2.376,1.85-3.1,1.85a4,4,0,0,1-3.637-1.883l-.112-.265L68.6,82.873l.113.265a6,6,0,0,0,5.134,3.5v1.891Z" transform="translate(-55.667 -54.053)" fill="#00003f"/>
      </g>
    </g>
  </g>
</svg>
