<svg id="returning_box" data-name="returning box" xmlns="http://www.w3.org/2000/svg" width="72.857" height="72.857" viewBox="0 0 72.857 72.857">
  <path id="Tracé_70" data-name="Tracé 70" d="M50.089,48.5H4.025A4.031,4.031,0,0,1,0,44.475V7.518A1.518,1.518,0,0,1,1.518,6H59.2a1.518,1.518,0,0,1,1.518,1.518V19.661a1.518,1.518,0,1,1-3.036,0V9.036H3.036V44.475a.99.99,0,0,0,.99.99H50.089a1.518,1.518,0,1,1,0,3.036Z" transform="translate(0 12.214)" fill="#404040"/>
  <path id="Tracé_71" data-name="Tracé 71" d="M59.2,21.25a1.513,1.513,0,0,1-1.33-.786L48.7,3.822a1.51,1.51,0,0,0-1.33-.786H13.345a1.51,1.51,0,0,0-1.33.786L2.847,20.464A1.518,1.518,0,0,1,.188,19L9.356,2.359A4.545,4.545,0,0,1,13.345,0H47.372a4.549,4.549,0,0,1,3.989,2.356L60.526,19A1.521,1.521,0,0,1,59.2,21.25Z" transform="translate(0 0)" fill="#404040"/>
  <path id="Tracé_72" data-name="Tracé 72" d="M11.018,21.25A1.518,1.518,0,0,1,9.5,19.732V1.518a1.518,1.518,0,1,1,3.036,0V19.732A1.518,1.518,0,0,1,11.018,21.25Z" transform="translate(19.339)" fill="#404040"/>
  <path id="Tracé_73" data-name="Tracé 73" d="M40.8,42.322A1.518,1.518,0,0,1,39.286,40.8V34.732a16.716,16.716,0,0,0-16.7-16.7H16.518a1.518,1.518,0,1,1,0-3.036h6.071A19.755,19.755,0,0,1,42.322,34.732V40.8A1.518,1.518,0,0,1,40.8,42.322Z" transform="translate(30.536 30.536)" fill="#404040"/>
  <path id="Tracé_74" data-name="Tracé 74" d="M27.143,33.249a1.509,1.509,0,0,1-.987-.367L15.531,23.774a1.511,1.511,0,0,1,0-2.3l10.625-9.107a1.517,1.517,0,1,1,1.973,2.3l-9.277,7.954,9.28,7.957a1.515,1.515,0,0,1-.99,2.668Z" transform="translate(30.536 24.43)" fill="#404040"/>
</svg>
