<svg xmlns="http://www.w3.org/2000/svg" width="29.564" height="36.121" viewBox="0 0 29.564 36.121">
  <g id="secure-payment" transform="translate(0)">
    <path id="Tracé_57" data-name="Tracé 57" d="M138.225,131.669a1.269,1.269,0,0,0-.892-.367,1.252,1.252,0,0,0-.891.367l-4.415,4.415-1.525-1.525a1.261,1.261,0,0,0-1.782,1.785l2.416,2.416a1.251,1.251,0,0,0,.891.365h0a1.253,1.253,0,0,0,.892-.366l5.306-5.306A1.263,1.263,0,0,0,138.225,131.669Z" transform="translate(-118.681 -118.056)" fill="#00003f"/>
    <path id="Tracé_58" data-name="Tracé 58" d="M62,7.444a.656.656,0,0,0-.366-.533L47.568.066a.655.655,0,0,0-.574,0L32.925,6.911a.656.656,0,0,0-.366.533,36.228,36.228,0,0,0,1.133,11.132,29.837,29.837,0,0,0,4.19,9.435,24.683,24.683,0,0,0,9.1,8.036.656.656,0,0,0,.6,0,24.683,24.683,0,0,0,9.1-8.036,29.835,29.835,0,0,0,4.19-9.435A36.229,36.229,0,0,0,62,7.444ZM47.281,25.392a8.341,8.341,0,1,1,8.341-8.341A8.35,8.35,0,0,1,47.281,25.392Z" transform="translate(-32.499 0.001)" fill="#00003f"/>
  </g>
</svg>
