<svg xmlns="http://www.w3.org/2000/svg" width="28.974" height="27.774" viewBox="0 0 28.974 27.774">
  <path id="Tracé_45" data-name="Tracé 45" d="M198.728,266.949a4.373,4.373,0,0,1-1-.967,4.255,4.255,0,0,1,.242-1.451c.29-1.085.62-2.314-.1-3.3s-2-1.063-3.131-1.12a4.265,4.265,0,0,1-1.434-.21,4.367,4.367,0,0,1-.628-1.282c-.4-1.063-.863-2.267-2.048-2.652-1.149-.373-2.207.314-3.14.92a4.243,4.243,0,0,1-1.338.69,4.242,4.242,0,0,1-1.338-.69c-.933-.606-1.991-1.293-3.14-.92-1.185.385-1.644,1.589-2.049,2.652a4.368,4.368,0,0,1-.628,1.282,4.264,4.264,0,0,1-1.434.21c-1.128.058-2.406.123-3.131,1.12s-.391,2.219-.1,3.3a4.257,4.257,0,0,1,.242,1.451,4.376,4.376,0,0,1-1,.967c-.848.682-1.9,1.532-1.9,2.795s1.056,2.113,1.9,2.8a4.378,4.378,0,0,1,1,.967,4.257,4.257,0,0,1-.242,1.451c-.29,1.085-.62,2.314.1,3.3s2,1.063,3.131,1.12a4.268,4.268,0,0,1,1.434.21,4.37,4.37,0,0,1,.628,1.282c.4,1.063.863,2.267,2.049,2.652a2.146,2.146,0,0,0,.667.106,4.828,4.828,0,0,0,2.472-1.026,4.243,4.243,0,0,1,1.338-.69,4.241,4.241,0,0,1,1.337.69c.933.606,1.991,1.293,3.14.92,1.185-.385,1.644-1.589,2.048-2.652a4.365,4.365,0,0,1,.629-1.282,4.264,4.264,0,0,1,1.434-.21c1.128-.058,2.406-.124,3.131-1.12s.391-2.219.1-3.3a4.255,4.255,0,0,1-.242-1.451,4.375,4.375,0,0,1,1-.967c.848-.683,1.9-1.532,1.9-2.8S199.577,267.631,198.728,266.949ZM179.6,265.8a2.065,2.065,0,1,1,2.065,2.065A2.065,2.065,0,0,1,179.6,265.8Zm2.306,9.7-1.751-1.8,10.657-10.358,1.751,1.8Zm8.608.859a2.065,2.065,0,1,1,2.065-2.065,2.065,2.065,0,0,1-2.065,2.065Z" transform="translate(-171.659 -255.857)" fill="#be323d"/>
</svg>
